<?xml version="1.0" encoding="UTF-8"?>
<svg xmlns="http://www.w3.org/2000/svg" xmlns:xlink="http://www.w3.org/1999/xlink" width="192pt" height="192pt" viewBox="0 0 192 192" version="1.1">
<defs>
<linearGradient id="linear0" gradientUnits="userSpaceOnUse" x1="44.765999" y1="7.255" x2="44.765999" y2="25.750999" gradientTransform="matrix(3,0,0,3,0,0)">
<stop offset="0" style="stop-color:rgb(42.745098%,78.039217%,100%);stop-opacity:1;"/>
<stop offset="1" style="stop-color:rgb(90.196079%,67.058825%,100%);stop-opacity:1;"/>
</linearGradient>
<linearGradient id="linear1" gradientUnits="userSpaceOnUse" x1="19.587" y1="36.488998" x2="19.587" y2="52.657001" gradientTransform="matrix(3,0,0,3,0,0)">
<stop offset="0" style="stop-color:rgb(42.745098%,78.039217%,100%);stop-opacity:1;"/>
<stop offset="1" style="stop-color:rgb(90.196079%,67.058825%,100%);stop-opacity:1;"/>
</linearGradient>
<linearGradient id="linear2" gradientUnits="userSpaceOnUse" x1="32" y1="6.872" x2="32" y2="56.882999" gradientTransform="matrix(3,0,0,3,0,0)">
<stop offset="0" style="stop-color:rgb(10.196079%,42.745098%,100%);stop-opacity:1;"/>
<stop offset="1" style="stop-color:rgb(78.431374%,13.333334%,100%);stop-opacity:1;"/>
</linearGradient>
<linearGradient id="linear3" gradientUnits="userSpaceOnUse" x1="32" y1="6.872" x2="32" y2="56.882999" gradientTransform="matrix(3,0,0,3,0,0)">
<stop offset="0" style="stop-color:rgb(10.196079%,42.745098%,100%);stop-opacity:1;"/>
<stop offset="1" style="stop-color:rgb(78.431374%,13.333334%,100%);stop-opacity:1;"/>
</linearGradient>
</defs>
<g id="surface13925">
<path style=" stroke:none;fill-rule:nonzero;fill:url(#linear0);" d="M 169.242188 63.832031 L 126.703125 21.289062 C 117.417969 20.789062 108.1875 21.5625 99.207031 23.492188 L 167.039062 91.324219 C 168.972656 82.347656 169.746094 73.117188 169.242188 63.832031 Z M 169.242188 63.832031 "/>
<path style=" stroke:none;fill-rule:nonzero;fill:url(#linear1);" d="M 94.914062 167.695312 L 24.960938 97.738281 C 23.027344 106.71875 22.253906 115.949219 22.757812 125.234375 L 67.421875 169.898438 C 76.703125 170.398438 85.9375 169.625 94.914062 167.695312 Z M 94.914062 167.695312 "/>
<path style=" stroke:none;fill-rule:nonzero;fill:url(#linear2);" d="M 121.453125 62.710938 C 120.890625 62.148438 120.128906 61.832031 119.335938 61.832031 C 118.539062 61.832031 117.773438 62.148438 117.214844 62.710938 L 112.089844 67.835938 L 107.847656 63.59375 L 103.605469 67.835938 L 107.847656 72.078125 L 103.957031 75.96875 L 99.714844 71.726562 L 95.472656 75.96875 L 99.714844 80.210938 L 95.824219 84.101562 L 91.582031 79.859375 L 87.339844 84.101562 L 91.582031 88.34375 L 87.691406 92.234375 L 83.449219 87.992188 L 79.207031 92.234375 L 83.449219 96.476562 L 79.558594 100.367188 L 75.316406 96.125 L 71.074219 100.367188 L 75.316406 104.609375 L 71.425781 108.5 L 67.183594 104.257812 L 62.941406 108.5 L 67.183594 112.742188 L 62.058594 117.867188 C 60.886719 119.039062 60.886719 120.9375 62.058594 122.109375 L 70.542969 130.597656 C 71.105469 131.160156 71.867188 131.476562 72.664062 131.476562 C 73.457031 131.476562 74.222656 131.160156 74.785156 130.597656 L 79.90625 125.472656 L 84.152344 129.71875 L 88.394531 125.476562 L 84.148438 121.230469 L 88.039062 117.339844 L 92.285156 121.585938 L 96.527344 117.34375 L 92.28125 113.097656 L 96.175781 109.207031 L 100.414062 113.449219 L 104.65625 109.207031 L 100.414062 104.964844 L 104.308594 101.074219 L 108.550781 105.316406 L 112.789062 101.074219 L 108.550781 96.832031 L 112.441406 92.941406 L 116.683594 97.183594 L 120.925781 92.941406 L 116.683594 88.699219 L 120.574219 84.808594 L 124.816406 89.050781 L 129.058594 84.808594 L 124.816406 80.566406 L 129.9375 75.441406 C 131.113281 74.269531 131.113281 72.371094 129.9375 71.199219 Z M 72.664062 124.234375 L 68.425781 119.988281 L 71.425781 116.984375 L 75.667969 121.226562 Z M 79.910156 116.988281 L 75.667969 112.746094 L 79.558594 108.855469 L 83.800781 113.097656 Z M 88.042969 108.855469 L 83.800781 104.613281 L 87.691406 100.722656 L 91.933594 104.964844 Z M 96.175781 100.722656 L 91.933594 96.480469 L 95.824219 92.589844 L 100.066406 96.832031 Z M 104.308594 92.589844 L 100.066406 88.347656 L 103.960938 84.457031 L 108.199219 88.699219 Z M 112.441406 84.457031 L 108.199219 80.214844 L 112.09375 76.324219 L 116.335938 80.566406 Z M 116.332031 72.078125 L 119.335938 69.074219 L 123.574219 73.320312 L 120.574219 76.324219 Z M 116.332031 72.078125 "/>
<path style=" stroke:none;fill-rule:nonzero;fill:url(#linear3);" d="M 169.421875 33.453125 C 168.09375 28.476562 164.175781 24.5625 159.199219 23.230469 C 120.800781 12.988281 79.511719 24.046875 51.453125 52.105469 C 23.394531 80.164062 12.328125 121.449219 22.578125 159.855469 C 23.90625 164.832031 27.824219 168.746094 32.800781 170.074219 C 42.269531 172.601562 51.910156 173.832031 61.492188 173.832031 C 90.757812 173.832031 119.410156 162.339844 140.546875 141.199219 C 168.605469 113.144531 179.671875 71.859375 169.421875 33.453125 Z M 136.304688 136.960938 C 109.757812 163.507812 70.695312 173.976562 34.347656 164.277344 C 31.441406 163.5 29.152344 161.214844 28.378906 158.308594 C 18.679688 121.964844 29.148438 82.898438 55.695312 56.347656 C 75.695312 36.347656 102.800781 25.472656 130.496094 25.472656 C 139.558594 25.472656 148.691406 26.636719 157.652344 29.03125 C 160.558594 29.804688 162.847656 32.09375 163.621094 35 C 173.320312 71.34375 162.855469 110.410156 136.304688 136.960938 Z M 136.304688 136.960938 "/>
</g>
</svg>
