<?xml version="1.0" encoding="UTF-8"?>
<svg xmlns="http://www.w3.org/2000/svg" xmlns:xlink="http://www.w3.org/1999/xlink" width="192pt" height="192pt" viewBox="0 0 192 192" version="1.1">
<defs>
<linearGradient id="linear0" gradientUnits="userSpaceOnUse" x1="28" y1="43.511002" x2="28" y2="48.255001" gradientTransform="matrix(3,0,0,3,0,0)">
<stop offset="0" style="stop-color:rgb(42.745098%,78.039217%,100%);stop-opacity:1;"/>
<stop offset="1" style="stop-color:rgb(90.196079%,67.058825%,100%);stop-opacity:1;"/>
</linearGradient>
<linearGradient id="linear1" gradientUnits="userSpaceOnUse" x1="28" y1="8.191" x2="28" y2="53.720001" gradientTransform="matrix(3,0,0,3,0,0)">
<stop offset="0" style="stop-color:rgb(10.196079%,42.745098%,100%);stop-opacity:1;"/>
<stop offset="1" style="stop-color:rgb(78.431374%,13.333334%,100%);stop-opacity:1;"/>
</linearGradient>
<linearGradient id="linear2" gradientUnits="userSpaceOnUse" x1="31.5" y1="8.191" x2="31.5" y2="53.720001" gradientTransform="matrix(3,0,0,3,0,0)">
<stop offset="0" style="stop-color:rgb(10.196079%,42.745098%,100%);stop-opacity:1;"/>
<stop offset="1" style="stop-color:rgb(78.431374%,13.333334%,100%);stop-opacity:1;"/>
</linearGradient>
<linearGradient id="linear3" gradientUnits="userSpaceOnUse" x1="19.566999" y1="8.191" x2="19.566999" y2="53.720001" gradientTransform="matrix(3,0,0,3,0,0)">
<stop offset="0" style="stop-color:rgb(10.196079%,42.745098%,100%);stop-opacity:1;"/>
<stop offset="1" style="stop-color:rgb(78.431374%,13.333334%,100%);stop-opacity:1;"/>
</linearGradient>
<linearGradient id="linear4" gradientUnits="userSpaceOnUse" x1="17.552" y1="8.191" x2="17.552" y2="53.720001" gradientTransform="matrix(3,0,0,3,0,0)">
<stop offset="0" style="stop-color:rgb(10.196079%,42.745098%,100%);stop-opacity:1;"/>
<stop offset="1" style="stop-color:rgb(78.431374%,13.333334%,100%);stop-opacity:1;"/>
</linearGradient>
</defs>
<g id="surface13905">
<path style=" stroke:none;fill-rule:nonzero;fill:url(#linear0);" d="M 96 138 C 96 144.628906 90.628906 150 84 150 C 77.371094 150 72 144.628906 72 138 C 72 131.371094 77.371094 126 84 126 C 90.628906 126 96 131.371094 96 138 Z M 96 138 "/>
<path style=" stroke:none;fill-rule:nonzero;fill:url(#linear1);" d="M 84 123 C 75.730469 123 69 129.730469 69 138 C 69 146.269531 75.730469 153 84 153 C 92.269531 153 99 146.269531 99 138 C 99 129.730469 92.269531 123 84 123 Z M 84 147 C 79.039062 147 75 142.960938 75 138 C 75 133.039062 79.039062 129 84 129 C 88.960938 129 93 133.039062 93 138 C 93 142.960938 88.960938 147 84 147 Z M 84 147 "/>
<path style=" stroke:none;fill-rule:nonzero;fill:url(#linear2);" d="M 171 120 L 135 120 L 135 93 L 143.308594 93 C 145.945312 93 148.445312 91.855469 150.175781 89.851562 C 151.863281 87.894531 152.617188 85.316406 152.242188 82.78125 C 147 47.5 114.929688 21.746094 79.21875 24.160156 C 44.824219 26.484375 17.273438 54.1875 15.136719 88.597656 C 14.089844 105.488281 19.207031 122.101562 29.546875 135.367188 C 32.296875 138.894531 36.679688 141 41.277344 141 L 54.152344 141 C 55.660156 156.136719 68.472656 168 84 168 C 99.527344 168 112.339844 156.136719 113.847656 141 L 129 141 L 129 165 C 129 166.65625 130.34375 168 132 168 L 153 168 C 164.578125 168 174 158.578125 174 147 L 174 123 C 174 121.34375 172.65625 120 171 120 Z M 168 135 L 135 135 L 135 126 L 168 126 Z M 129 120 L 114 120 L 114 102 C 114 97.039062 118.039062 93 123 93 L 129 93 Z M 34.277344 131.683594 C 24.835938 119.566406 20.164062 104.398438 21.125 88.972656 C 23.074219 57.554688 48.226562 32.269531 79.621094 30.148438 C 112.230469 27.957031 141.523438 51.457031 146.308594 83.664062 C 146.472656 84.769531 145.953125 85.558594 145.632812 85.933594 C 145.042969 86.613281 144.199219 87 143.308594 87 L 123 87 C 114.730469 87 108 93.730469 108 102 L 108 120.074219 C 102.523438 112.765625 93.820312 108 84 108 C 68.46875 108 55.660156 119.863281 54.152344 135 L 41.277344 135 C 38.515625 135 35.898438 133.757812 34.277344 131.683594 Z M 84 162 C 70.765625 162 60 151.234375 60 138 C 60 124.765625 70.765625 114 84 114 C 97.234375 114 108 124.765625 108 138 C 108 151.234375 97.234375 162 84 162 Z M 114 135 L 114 126 L 129 126 L 129 135 Z M 153 162 L 135 162 L 135 141 L 168 141 L 168 147 C 168 155.269531 161.269531 162 153 162 Z M 153 162 "/>
<path style=" stroke:none;fill-rule:nonzero;fill:url(#linear3);" d="M 78 54.355469 L 78 48.324219 C 57.878906 50.96875 41.941406 66.9375 39.398438 87 L 45.429688 87 C 47.890625 70.238281 61.183594 56.910156 78 54.355469 Z M 78 54.355469 "/>
<path style=" stroke:none;fill-rule:nonzero;fill:url(#linear4);" d="M 78 42.316406 L 78 36.285156 C 51.433594 39.0625 30.273438 60.296875 27.308594 87 L 33.335938 87 C 36.238281 63.601562 54.742188 45.042969 78 42.316406 Z M 78 42.316406 "/>
</g>
</svg>
